# xmcd
#
# Track frame offsets: 
#        150
#        33088
#        58945
#        97924
#        123693
#        150118
#        177448
#        212756
#        238255
#
# Disc length: 3408 seconds
#
# Revision: 0
# Processed by: cddbd v1.5.2PL0 Copyright (c) Steve Scherf et al.
# Submitted via: ExactAudioCopy v0.99pb5
#
DISCID=730d4e09
DTITLE=Józef i Jan Skrzek - Dwa Braty
DYEAR=2015
DGENRE=Blues
TTITLE0=01.Swing Jasia
TTITLE1=02.Ocaliæ Marzenia
TTITLE2=03.O Mój Sl¹sku
TTITLE3=04.W Ko³ysce D³oni Twych - Ojcu
TTITLE4=05.S³odki Dom
TTITLE5=06.O Ziemio - Dzieciom Slaska
TTITLE6=07.To By³ Ch³op
TTITLE7=08.Singer
TTITLE8=09.Boggie - Boggie
EXTD=
EXTT0=
EXTT1=
EXTT2=
EXTT3=
EXTT4=
EXTT5=
EXTT6=
EXTT7=
EXTT8=
PLAYORDER=
